<svg width="114" height="137" viewBox="0 0 114 137" fill="none" xmlns="http://www.w3.org/2000/svg">
<ellipse cx="57" cy="55" rx="57" ry="55" fill="#8A3D16"/>
<path d="M37.6142 34.6621L73.5937 70.6416C74.2764 71.3243 74.66 72.2503 74.66 73.2158C74.66 74.1813 74.2764 75.1073 73.5937 75.79C72.9109 76.4725 71.9849 76.8559 71.0195 76.8559C70.0541 76.8559 69.1282 76.4725 68.4453 75.79L59.6562 66.8496C59.0811 66.2656 58.7584 65.4789 58.7578 64.6592V64.1191C58.7579 63.7052 58.6757 63.2955 58.5161 62.9136C58.3565 62.5317 58.1227 62.1853 57.8281 61.8945L56.6933 60.8467C56.3081 60.4912 55.8397 60.2384 55.3311 60.1114C54.8226 59.9845 54.2903 59.9874 53.7832 60.1201C52.9835 60.3288 52.1432 60.3248 51.3456 60.1084C50.548 59.8921 49.8209 59.4709 49.2363 58.8867L40.8935 50.543C35.9443 45.5937 34.123 38.1201 37.6142 34.6621Z" stroke="white" stroke-width="3" stroke-linejoin="round"/>
<path d="M71.0625 33.125L63.5186 40.6689C62.9381 41.2493 62.4776 41.9384 62.1634 42.6968C61.8492 43.4551 61.6875 44.268 61.6875 45.0889V46.54C61.6876 46.7454 61.6471 46.9487 61.5685 47.1384C61.4899 47.328 61.3747 47.5004 61.2295 47.6455L60.125 48.75M63.25 51.875L64.3545 50.7705C64.4996 50.6253 64.672 50.5101 64.8617 50.4315C65.0514 50.3529 65.2547 50.3125 65.46 50.3125H66.9112C67.732 50.3125 68.5449 50.1508 69.3033 49.8366C70.0616 49.5225 70.7507 49.062 71.3311 48.4814L78.875 40.9375M74.9688 37.0313L67.1563 44.8438M51.5313 65.9375L41.793 75.7305C41.0605 76.4628 40.0671 76.8742 39.0313 76.8742C37.9955 76.8742 37.0021 76.4628 36.2696 75.7305C35.5372 74.9979 35.1259 74.0046 35.1259 72.9688C35.1259 71.933 35.5372 70.9396 36.2696 70.207L44.5 62.0313" stroke="white" stroke-width="3" stroke-linecap="round" stroke-linejoin="round"/>
<path d="M57 137L18.0289 95H95.9711L57 137Z" fill="#8A3D16"/>
</svg>
